<svg xmlns="http://www.w3.org/2000/svg" width="512" height="512" viewBox="0 0 512 512"><title>wheel-rgb</title><path d="M394.53,176,463.92,136A242.31,242.31,0,0,0,376,48.08L336,117.47A161.14,161.14,0,0,1,394.53,176Z" fill="#ff7f00"/><path d="M256,416v80a238.55,238.55,0,0,0,120-32.08L336,394.53A159,159,0,0,1,256,416Z" fill="#00ff7f"/><path d="M176,394.53,136,463.92A238.55,238.55,0,0,0,256,496V416A159,159,0,0,1,176,394.53Z" fill="aqua"/><path d="M416,256a159,159,0,0,1-21.47,80L463.92,376A238.55,238.55,0,0,0,496,256Z" fill="#7fff00"/><path d="M117.47,336,48.08,376A242.31,242.31,0,0,0,136,463.92L176,394.53A161.14,161.14,0,0,1,117.47,336Z" fill="#007fff"/><path d="M336,394.53,376,463.92A242.31,242.31,0,0,0,463.92,376L394.53,336A161,161,0,0,1,336,394.53Z" fill="lime"/><path d="M176,117.47,136,48.08A242.31,242.31,0,0,0,48.08,136L117.47,176A161.14,161.14,0,0,1,176,117.47Z" fill="#f0f"/><path d="M336,117.47,376,48.08A238.55,238.55,0,0,0,256,16V96A159,159,0,0,1,336,117.47Z" fill="red"/><path d="M256,96V16A238.55,238.55,0,0,0,136,48.08L176,117.47A159,159,0,0,1,256,96Z" fill="#ff007f"/><path d="M96,256H16A238.55,238.55,0,0,0,48.08,376L117.47,336A159,159,0,0,1,96,256Z" fill="blue"/><path d="M117.47,176,48.08,136A238.55,238.55,0,0,0,16,256H96A159,159,0,0,1,117.47,176Z" fill="#7f00ff"/><path d="M416,256h80a238.55,238.55,0,0,0-32.08-120L394.53,176A159,159,0,0,1,416,256Z" fill="#ff0"/></svg>